<svg width="171" height="26" viewBox="0 0 171 26" fill="none" xmlns="http://www.w3.org/2000/svg">
<g clip-path="url(#clip0_158_3952)">
<path fill-rule="evenodd" clip-rule="evenodd" d="M75.1369 3.17892C74.4616 4.18599 73.0655 5.50946 72.2802 6.40475C70.3074 4.91062 68.5699 3.54264 64.5225 4.05704C57.5521 4.72806 51.9482 12.1384 55.8826 18.9594C60.4299 22.2848 64.9396 20.9567 69.0008 18.5621L70.0287 22.5546C56.7911 29.5764 45.1723 23.4439 50.4062 10.0311C52.2586 5.97726 62.3893 -5.5269 75.1369 3.17997" fill="#EC6607"/>
<path fill-rule="evenodd" clip-rule="evenodd" d="M44.7233 0.126221C42.7857 3.33628 35.9266 13.4034 29.8215 13.1984C19.8164 13.1984 10.1193 13.2247 0.00195312 13.1133L15.119 0.143042C24.3367 0.143042 35.6187 0.23765 44.7243 0.126221" fill="#EC6607"/>
<path fill-rule="evenodd" clip-rule="evenodd" d="M169.798 2.0096L168.198 5.28589C160.351 2.40556 154.154 6.0249 152.505 9.1824C149.257 14.429 151.648 19.0936 152.903 20.045C156.857 22.1845 159.79 21.6831 164.282 19.7867L165.71 13.19H159.819L159.864 9.75812H171.001L168.362 21.5832C157.064 31.8004 137.518 23.2175 149.185 6.82522C152.158 2.21705 161.896 -2.05615 169.798 2.0096Z" fill="#EC6607"/>
<path fill-rule="evenodd" clip-rule="evenodd" d="M126.296 0.173863L108.899 25.7384L103.502 25.7517L100.129 0.147583L104.63 0.262516L107.679 20.0299L121.371 0.155993" fill="#EC6607"/>
<g opacity="0.5">
<mask id="mask0_158_3952" style="mask-type:luminance" maskUnits="userSpaceOnUse" x="1" y="15" width="33" height="5">
<path d="M33.4308 15.3485H1.12305V19.3733H33.4308V15.3485Z" fill="white"/>
</mask>
<g mask="url(#mask0_158_3952)">
<path fill-rule="evenodd" clip-rule="evenodd" d="M33.4308 15.3485C32.8671 17.6962 30.0935 19.1178 27.9555 19.3733L3.64473 19.3147L1.12305 15.3485" fill="#EC6607"/>
</g>
</g>
<g opacity="0.5">
<mask id="mask1_158_3952" style="mask-type:luminance" maskUnits="userSpaceOnUse" x="4" y="21" width="25" height="5">
<path d="M28.6536 21.0763H4.72266V25.0163H28.6536V21.0763Z" fill="white"/>
</mask>
<g mask="url(#mask1_158_3952)">
<path fill-rule="evenodd" clip-rule="evenodd" d="M28.6542 21.0763C28.1134 23.3059 23.9511 24.361 22.7808 25.0163H6.80311L4.72461 21.1618" fill="#EC6607"/>
</g>
</g>
<path fill-rule="evenodd" clip-rule="evenodd" d="M87.1838 5.13076L87.7425 9.74138H83.9565M90.7793 0.254864L94.151 25.8733L89.8947 25.859L88.2741 13.4171L81.3365 13.5598L73.3395 25.9228L68.6523 25.8099L76.8875 13.2728L74.289 13.3677L75.7644 9.79149L78.9941 9.75645L85.4632 0.254517L90.7793 0.254864Z" fill="#EC6607"/>
<path fill-rule="evenodd" clip-rule="evenodd" d="M136.271 4.95064L136.962 9.74138H133.174M139.998 0.254864L143.37 25.8733L139.114 25.859L137.493 13.4171L130.555 13.5598L122.558 25.9228L117.869 25.8099L126.104 13.2728L123.506 13.3677L124.98 9.79149L128.212 9.75645L134.679 0.254517L139.998 0.254864Z" fill="#EC6607"/>
</g>
<defs>
<clipPath id="clip0_158_3952">
<rect width="171" height="26" fill="white"/>
</clipPath>
</defs>
</svg>
