<svg width="144" height="50" viewBox="0 0 144 50" fill="none" xmlns="http://www.w3.org/2000/svg">
<g clip-path="url(#clip0_158_3889)">
<mask id="mask0_158_3889" style="mask-type:luminance" maskUnits="userSpaceOnUse" x="0" y="0" width="126" height="56">
<path d="M125.041 0.0516357H0V55.7229H125.041V0.0516357Z" fill="white"/>
</mask>
<g mask="url(#mask0_158_3889)">
<path fill-rule="evenodd" clip-rule="evenodd" d="M63.9888 38.0889C63.9208 38.1993 63.8461 38.3054 63.7655 38.4069C63.6072 38.6344 63.449 38.8268 63.3192 38.9867C63.1894 39.1465 63.0961 39.2911 63.0027 39.4263C62.9386 39.5583 62.8446 39.6897 62.7789 39.8177C62.7133 39.9458 62.6204 40.081 62.5239 40.2321C62.4598 40.3697 62.3658 40.5262 62.2685 40.7027C62.2044 40.8833 62.11 41.0497 62.0443 41.2072C61.7805 41.7102 61.5459 42.228 61.3422 42.7586C61.0866 43.3908 60.736 44.0258 60.8951 44.2509C60.9592 44.3471 61.0234 44.3956 61.37 44.3049C61.4341 44.2882 61.4984 44.2658 61.5625 44.2435C61.6174 44.2282 61.6702 44.2068 61.7205 44.1798C61.9801 44.0626 62.2177 43.9011 62.4227 43.7026C62.6458 43.4937 62.8694 43.2791 63.0931 43.058C63.0931 43.0325 63.1244 43.0156 63.1885 43.0156C63.227 43.0114 63.2661 43.0187 63.3002 43.037C63.3344 43.0553 63.3623 43.0837 63.3802 43.1181C63.4291 43.1608 63.4628 43.2184 63.4761 43.282C63.4761 43.3138 63.4118 43.3846 63.3176 43.4975C63.2543 43.6065 63.1263 43.7249 63.0305 43.8498C62.9031 43.9778 62.775 44.0996 62.6792 44.2117L62.5834 44.3049L62.4559 44.4497C62.2964 44.6052 62.1258 44.7484 61.9454 44.8788C61.8052 45.0206 61.628 45.1199 61.4342 45.1647C61.2173 45.2332 60.9911 45.2677 60.7637 45.2672C60.6642 45.2663 60.5662 45.2432 60.4766 45.1996C60.3928 45.1582 60.3171 45.1019 60.2533 45.0334C60.2216 44.969 60.1578 44.9012 60.1578 44.8272C60.124 44.7682 60.1021 44.7033 60.0937 44.6357C60.0957 44.5611 60.1064 44.4866 60.1254 44.4144C60.1578 44.2792 60.1578 44.138 60.1895 43.9853C60.2253 43.8444 60.2464 43.7003 60.2533 43.555C60.2726 43.4839 60.2835 43.4104 60.2857 43.3368V43.2576C60.1071 43.4176 59.9367 43.5864 59.7753 43.7639C59.5972 43.9479 59.4054 44.1177 59.201 44.2715C59.0812 44.3673 58.9527 44.4518 58.8177 44.5243C58.6996 44.6118 58.5713 44.6841 58.4355 44.7398C58.3714 44.7581 58.3076 44.7812 58.2435 44.8035C58.1811 44.8202 58.117 44.8309 58.0526 44.8354C57.944 44.8314 57.837 44.8089 57.7361 44.7686C57.634 44.7195 57.5374 44.6592 57.4486 44.5888C57.3693 44.5087 57.295 44.4241 57.2256 44.3352C57.1606 44.2466 57.1072 44.1495 57.0672 44.047C57.0348 43.9482 57.0132 43.8462 57.003 43.7426V43.4929C56.9985 43.3318 57.0094 43.1707 57.0355 43.0117C57.0809 42.8187 57.1809 42.6426 57.323 42.505C57.4282 42.3752 57.5455 42.2561 57.6735 42.1489C57.7876 42.0339 57.9163 41.9346 58.0564 41.8537C58.0889 41.8251 58.184 41.774 58.3122 41.6802C58.4705 41.5943 58.6288 41.5036 58.8227 41.4145C58.9886 41.3237 59.1593 41.2422 59.334 41.1699C59.4651 41.1105 59.6053 41.0735 59.7486 41.0608C59.8284 41.0576 59.9068 41.0813 59.9716 41.1283C60.0408 41.1798 60.1051 41.238 60.1632 41.3019C60.1949 41.3695 60.2274 41.4395 60.2591 41.5174C60.2923 41.5789 60.3141 41.6461 60.3232 41.7155C60.3231 41.7637 60.3111 41.8111 60.2888 41.8537C60.2665 41.8964 60.2343 41.9327 60.1949 41.9601C60.1057 41.998 60.0199 42.0444 59.9391 42.098C59.7388 42.2003 59.547 42.318 59.3649 42.4502C59.1323 42.6182 58.9085 42.798 58.6944 42.9892C58.4811 43.1829 58.2787 43.3888 58.0881 43.6051C57.9222 43.7739 57.792 43.9744 57.7052 44.195C57.7052 44.2332 57.7694 44.2525 57.8327 44.2525C57.9666 44.2416 58.0968 44.2033 58.2156 44.1402C58.3712 44.0619 58.5204 43.9716 58.662 43.87C58.8202 43.7642 58.9492 43.6645 59.0766 43.5651C59.204 43.4657 59.2996 43.3831 59.3637 43.3267C59.4916 43.2298 59.6096 43.1199 59.7154 42.9989C59.8672 42.8673 60.006 42.7215 60.13 42.5632C60.2688 42.4135 60.3967 42.254 60.5129 42.086C60.6181 41.944 60.7043 41.7886 60.7688 41.6238C60.9919 41.0671 61.2156 40.5105 61.4388 39.9657C61.6579 39.4404 61.9032 38.9265 62.1734 38.4259C62.2051 38.3265 62.2689 38.208 62.3315 38.0632C62.394 37.9185 62.4274 37.6719 62.5865 37.6528C62.9355 37.6265 64.3719 37.3095 63.9888 38.0889ZM66.7974 43.4071C66.6547 43.4071 66.5176 43.3516 66.4144 43.2525C66.309 43.14 66.2523 42.9903 66.2564 42.8358C66.2532 42.6806 66.3097 42.5302 66.4144 42.416C66.5187 42.3194 66.6555 42.266 66.7974 42.2665C66.9522 42.267 67.1012 42.3276 67.2124 42.4358C67.267 42.4858 67.3094 42.5475 67.3368 42.6164C67.3642 42.6853 67.3757 42.7595 67.3704 42.8335C67.3798 42.9107 67.3702 42.9888 67.3426 43.0615C67.315 43.1341 67.2706 43.1989 67.2124 43.2502C67.0971 43.35 66.9496 43.4047 66.7974 43.4043V43.4071ZM89.6158 41.8638C89.6229 42.0364 89.6012 42.2091 89.5517 42.3745C89.5153 42.5873 89.4511 42.7943 89.3604 42.99C89.2907 43.2024 89.2051 43.4095 89.1046 43.609C88.9771 43.811 88.8815 43.981 88.7881 44.1154L88.5968 44.3954C88.5164 44.4763 88.4416 44.5631 88.3734 44.6548C88.3054 44.7261 88.2302 44.7901 88.1493 44.8462C88.0731 44.8961 87.9848 44.9237 87.8939 44.9258C87.8393 44.9246 87.7853 44.9125 87.7355 44.8901C87.6803 44.8687 87.6275 44.842 87.5774 44.8105C87.5133 44.7787 87.4807 44.7472 87.419 44.7146C87.3749 44.6907 87.3323 44.6641 87.2915 44.635C87.1307 44.5149 86.9998 44.359 86.9085 44.1798C86.8152 44.0204 86.7506 43.8457 86.7172 43.6638C86.6848 43.484 86.6847 43.3042 86.6531 43.1213C86.6531 42.9391 86.6206 42.769 86.6206 42.6052C86.4183 42.7783 86.2364 42.9741 86.0785 43.1888C85.9202 43.4091 85.7271 43.6281 85.5672 43.8397C85.3879 44.0388 85.1959 44.2261 84.9926 44.4004C84.808 44.5549 84.5887 44.6615 84.3538 44.7119C84.3222 44.7182 84.2904 44.7287 84.2263 44.7414C84.1939 44.7541 84.1308 44.7659 84.0992 44.7794C84.0558 44.7884 84.0129 44.8005 83.9709 44.8148C83.9399 44.8242 83.9075 44.8284 83.8751 44.828C83.8464 44.8302 83.8176 44.8268 83.7904 44.8175C83.7632 44.8082 83.7384 44.7933 83.717 44.774C83.6635 44.7438 83.6191 44.6995 83.5887 44.6458C83.5571 44.5918 83.5245 44.5361 83.4929 44.4789V44.32C83.5082 44.1892 83.5405 44.0608 83.5887 43.9383C83.6439 43.7153 83.7184 43.4973 83.8117 43.2875C83.9075 43.0377 84.0043 42.7801 84.1286 42.505C84.2243 42.2322 84.3517 41.9826 84.445 41.7551C84.5732 41.5276 84.6689 41.3407 84.7615 41.1936C84.8541 41.0464 84.9196 40.9757 84.9845 40.9757C85.0384 40.9774 85.0919 40.9871 85.1429 41.0045C85.2101 41.0253 85.2746 41.0543 85.3346 41.0911C85.403 41.134 85.4669 41.1836 85.5259 41.239C85.5643 41.3008 85.5864 41.3713 85.59 41.4441L85.0471 43.5119C85.0788 43.5254 85.1105 43.528 85.1105 43.5216C85.1105 43.5153 85.1429 43.5086 85.1429 43.503C85.3372 43.3476 85.5188 43.1772 85.6859 42.9927C85.8441 42.8122 85.9731 42.6329 86.1322 42.4595C86.2604 42.2893 86.3877 42.1298 86.5151 41.9827C86.6337 41.839 86.7735 41.7142 86.9298 41.6134C86.9298 41.5943 86.9623 41.5847 87.0256 41.5815C87.0889 41.5783 87.1215 41.5753 87.1531 41.5753C87.2706 41.5738 87.3879 41.5835 87.5036 41.604C87.5939 41.6097 87.6817 41.637 87.7594 41.6837C87.7872 41.6925 87.8128 41.7067 87.8348 41.726C87.8567 41.7453 87.8742 41.769 87.8866 41.7955C87.9164 41.8348 87.9382 41.8797 87.9507 41.9275C87.9228 42.1002 87.9119 42.2754 87.9182 42.4502V43.0498C87.9182 43.259 87.9507 43.4697 87.9507 43.682C87.9831 43.8999 87.9832 44.1052 88.0148 44.3072C88.07 44.2575 88.1137 44.1961 88.1424 44.1274C88.1748 44.0376 88.2382 43.9447 88.2707 43.8389C88.3031 43.7331 88.3661 43.6305 88.3978 43.5271C88.3997 43.4359 88.4216 43.3462 88.4619 43.2645C88.5397 43.0821 88.5931 42.8903 88.6204 42.6937C88.688 42.4676 88.7411 42.2371 88.7788 42.004C88.8054 41.9347 88.8165 41.8603 88.8113 41.7862C88.8437 41.7122 88.8434 41.6356 88.875 41.5648V41.4305C88.9067 41.3509 88.9067 41.2667 88.9392 41.1808C88.9716 41.0949 89.0026 41.0138 89.035 40.9462C89.0675 40.8786 89.0992 40.8437 89.1625 40.8437C89.1992 40.8467 89.2339 40.8608 89.2622 40.8845C89.2906 40.9081 89.3109 40.94 89.3206 40.9757C89.3847 41.0648 89.4165 41.1418 89.479 41.2142C89.5221 41.3041 89.5543 41.3988 89.5748 41.4965C89.6004 41.6153 89.611 41.7369 89.6065 41.8584L89.6158 41.8638ZM106.307 44.5965C106.454 44.7129 106.624 44.7962 106.806 44.84C106.988 44.8838 107.177 44.8874 107.361 44.8505C107.489 44.8314 107.425 44.715 107.425 44.7119C107.361 44.6546 107.267 44.623 107.233 44.553C107.109 44.3616 107.051 44.1343 107.069 43.9065C107.086 43.6786 107.178 43.4628 107.329 43.2925C107.425 43.1796 107.487 43.0578 107.584 42.9306C107.68 42.7564 108.127 42.2823 108.127 42.1089C108.191 41.6214 108.127 41.5952 107.81 41.2914C107.459 40.9328 107.172 41.2055 106.884 41.6405C106.735 41.8791 106.608 42.1302 106.502 42.3912C106.383 42.658 106.277 42.9312 106.185 43.209C106.108 43.4529 106.065 43.7062 106.057 43.962C106.08 44.1933 106.168 44.413 106.313 44.5942L106.307 44.5965ZM109.02 39.975C109.025 39.8941 109.014 39.8132 108.988 39.7366C108.973 39.6578 108.94 39.5836 108.892 39.5195C108.829 39.4543 108.753 39.4038 108.669 39.3715C108.578 39.3345 108.479 39.3232 108.382 39.3389L108.318 39.3494C108.207 39.3597 108.099 39.3919 108.001 39.4445C107.91 39.503 107.824 39.5702 107.745 39.6445C107.677 39.7218 107.624 39.8103 107.587 39.9066C107.526 39.993 107.493 40.0959 107.491 40.2018C107.471 40.286 107.479 40.3748 107.513 40.4542C107.548 40.5336 107.607 40.5994 107.683 40.6418C107.756 40.6943 107.839 40.7311 107.927 40.7505C108.015 40.7699 108.106 40.7716 108.194 40.7548C108.282 40.7433 108.368 40.7179 108.449 40.6798C108.544 40.6442 108.63 40.59 108.704 40.5206C108.794 40.4583 108.87 40.3789 108.929 40.2868C108.993 40.1935 109.026 40.0823 109.024 39.9688L109.02 39.975ZM124.848 40.5462C124.829 40.5632 124.814 40.5837 124.803 40.6068C124.792 40.6299 124.785 40.655 124.784 40.6806C124.747 40.7347 124.705 40.7846 124.657 40.8293C124.512 40.9674 124.353 41.0897 124.182 41.1944C124.041 41.2864 123.891 41.364 123.735 41.4258C123.591 41.4867 123.442 41.5317 123.289 41.5602C123.152 41.5905 123.013 41.6111 122.874 41.6215C122.746 41.6398 122.618 41.813 122.618 41.813L122.586 41.8355V41.8607L122.554 41.8864V41.9085L122.521 41.9213C122.085 42.5228 121.78 43.2106 121.628 43.9391C121.627 43.9698 121.632 44.0005 121.643 44.0292C121.654 44.0579 121.671 44.084 121.692 44.1061C121.738 44.1417 121.793 44.164 121.85 44.1705C121.914 44.1799 121.978 44.1829 122.042 44.1798C122.106 44.1798 122.17 44.1729 122.2 44.1729C122.362 44.1681 122.522 44.1392 122.675 44.087C122.861 44.045 123.035 43.9614 123.185 43.8428C123.351 43.7325 123.51 43.6115 123.66 43.4809C123.764 43.3815 123.9 43.3233 124.043 43.317C124.171 43.317 124.267 43.3455 124.267 43.4028C124.293 43.4611 124.304 43.5255 124.298 43.5892C124.307 43.651 124.296 43.7135 124.267 43.7686C124.26 43.8145 124.237 43.8568 124.202 43.8874C124.166 43.9322 124.123 43.9713 124.075 44.0035C124.015 44.0531 123.962 44.11 123.917 44.1729C123.77 44.3234 123.597 44.4463 123.406 44.5356C123.189 44.6443 122.965 44.7386 122.736 44.8179C122.506 44.8959 122.272 44.9577 122.033 45.0031C121.834 45.0462 121.631 45.0688 121.427 45.0707C121.352 45.0705 121.277 45.0642 121.203 45.0517C121.113 45.0442 121.026 45.017 120.948 44.972C120.864 44.9412 120.795 44.8793 120.756 44.7988C120.692 44.7097 120.649 44.6077 120.628 44.4998L121.713 41.7163C121.713 41.7028 121.713 41.6876 121.681 41.6685C121.553 41.6518 121.457 41.6388 121.298 41.6293C121.173 41.6112 121.054 41.5679 120.947 41.5015C120.883 41.4697 120.851 41.4117 120.788 41.3345C120.726 41.2574 120.692 41.1704 120.63 41.0813C120.597 40.9915 120.566 40.8987 120.534 40.8049C120.51 40.7305 120.499 40.6524 120.502 40.5742C120.502 40.478 120.502 40.415 120.566 40.3975C120.627 40.373 120.693 40.3631 120.758 40.3688L122.225 40.5136C122.294 40.3778 122.348 40.2344 122.384 40.0864C122.448 39.9361 122.511 39.7955 122.575 39.6674C122.703 39.4137 122.799 39.1378 122.959 38.8364C123.086 38.5382 123.214 38.2534 123.341 37.9766C123.404 37.8816 123.457 37.7807 123.5 37.6753C123.561 37.5489 123.636 37.4295 123.723 37.3196C123.79 37.208 123.877 37.1095 123.979 37.0279C124.08 36.9511 124.202 36.9083 124.329 36.906C124.496 36.9093 124.66 36.9555 124.804 37.0404C124.87 37.0828 124.924 37.1408 124.963 37.2089C125.002 37.277 125.024 37.3534 125.027 37.4318C125.018 37.5434 124.985 37.6518 124.931 37.7499C124.869 37.8913 124.795 38.027 124.708 38.1549C124.613 38.2925 124.55 38.4172 124.484 38.5269C124.432 38.5958 124.389 38.6714 124.357 38.7514C124.165 39.0424 124.006 39.334 123.846 39.6259C123.688 39.8756 123.53 40.1231 123.399 40.3641V40.38H123.367C123.303 40.5041 123.399 40.543 123.431 40.5462L124.58 40.4309C124.623 40.431 124.666 40.4343 124.708 40.4406C124.757 40.4644 124.8 40.4983 124.835 40.54L124.848 40.5462ZM94.5296 42.6444C94.4723 42.7893 94.4296 42.9395 94.4017 43.0929C94.2434 43.683 93.6678 45.0523 95.0401 45.174C95.1312 44.8573 95.2062 44.5361 95.2642 44.2117C95.4225 43.655 95.5808 43.0727 95.7391 42.4929C96.6307 42.3808 97.5149 42.2172 98.3877 42.0025C98.1696 42.6609 97.9884 43.331 97.8447 44.0098C97.5891 45.2282 98.7058 45.5748 99.4086 44.7088C99.4403 44.6897 99.472 44.6635 99.472 44.6412C99.3896 44.5909 99.3225 44.5192 99.2776 44.4334C99.2327 44.3477 99.2119 44.2513 99.2173 44.1546C99.2059 43.871 99.2272 43.5871 99.2807 43.3084C99.3764 42.9108 99.4721 42.5129 99.5972 42.1248C99.7555 41.6532 99.9137 41.1911 100.108 40.7353C100.299 40.2454 100.522 39.7643 100.745 39.2927C100.968 38.8505 101.224 38.418 101.48 38.0108V37.9918C100.841 37.2283 100.491 37.4882 100.139 38.0489C99.9162 38.4083 99.7245 38.7836 99.533 39.1622C99.3099 39.6147 99.1183 40.0793 98.926 40.5478C98.7985 40.8238 98.7029 41.1221 98.5755 41.4363C98.4815 41.4131 98.3841 41.4067 98.288 41.4173C97.5543 41.4594 96.7845 41.4816 96.054 41.5039C96.2456 40.9074 96.4688 40.3269 96.6928 39.7781C96.8511 39.3741 97.6818 37.8953 96.8199 37.5367C96.6743 37.4879 96.519 37.4774 96.3682 37.506C96.2174 37.5345 96.0762 37.6011 95.9582 37.6998C96.2748 37.8588 95.5118 39.9767 94.9365 41.5291C94.5218 41.5386 94.1069 41.5516 93.7231 41.5675C93.6475 41.5655 93.5722 41.5763 93.5002 41.5994C93.4361 41.6185 93.4044 41.6826 93.436 41.7924C93.5642 42.6736 94.0747 42.6969 94.5219 42.6452L94.5296 42.6444ZM102.731 41.3613C102.415 41.4607 101.806 41.9292 101.806 42.1885C101.87 42.2982 102.635 41.9865 102.923 41.6914C103.146 41.4799 102.987 41.2874 102.731 41.3613ZM101.04 42.1178C101.072 42.0858 101.095 42.0449 101.104 42.0001C101.2 41.8554 101.262 41.7177 101.359 41.592C101.563 41.3407 101.812 41.1301 102.093 40.9703C102.337 40.8337 102.611 40.7616 102.891 40.761C103.025 40.7513 103.159 40.7753 103.282 40.8309C103.404 40.8864 103.511 40.9716 103.593 41.079C103.655 41.1708 103.688 41.2791 103.689 41.3901C103.784 41.9897 103.113 42.3619 102.699 42.5512C102.392 42.6907 102.071 42.7973 101.742 42.8692C101.625 42.8894 101.521 42.9532 101.45 43.0479C101.379 43.1426 101.346 43.2611 101.359 43.3791C101.386 43.4906 101.454 43.5873 101.55 43.6494C102.11 43.8725 102.728 43.9006 103.306 43.729C103.976 43.5443 104.583 43.1781 105.06 42.6704C105.077 42.6353 105.105 42.6069 105.14 42.59C105.174 42.5731 105.214 42.5689 105.252 42.5776C105.316 42.6062 105.347 42.7157 105.347 42.7888C105.347 43.5499 104.455 44.2843 103.976 44.5158C103.476 44.7449 102.929 44.8467 102.381 44.8128C101.886 44.794 101.417 44.5854 101.071 44.2299C100.893 44.0336 100.782 43.7849 100.755 43.5205C100.724 43.0346 100.823 42.5497 101.042 42.1155L101.04 42.1178ZM80.1039 41.3613C80.3596 41.2874 80.5188 41.4799 80.2956 41.6914C80.0083 41.9865 79.2421 42.2982 79.1788 42.1885C79.1788 41.9292 79.785 41.4607 80.1039 41.3613ZM78.4423 42.1178C78.2103 42.5481 78.1005 43.0344 78.1254 43.5232C78.1524 43.7877 78.2637 44.0361 78.4423 44.2323C78.7844 44.5929 79.2547 44.8029 79.7504 44.8155C80.2985 44.8495 80.8466 44.7471 81.3459 44.5173C81.8208 44.2867 82.7181 43.5523 82.7181 42.7912C82.7181 42.718 82.6864 42.6093 82.6223 42.5799C82.5265 42.5481 82.4642 42.625 82.3993 42.6727C81.939 43.186 81.34 43.5539 80.6755 43.7313C80.098 43.903 79.4801 43.8749 78.9203 43.6517C78.8244 43.5895 78.7557 43.4929 78.7287 43.3814C78.7167 43.2586 78.7537 43.136 78.8314 43.0405C78.9091 42.945 79.0212 42.8842 79.1433 42.8716C79.4608 42.7946 79.7705 42.6882 80.0684 42.5535C80.5147 42.3642 81.1534 41.9921 81.0901 41.3924C81.0635 41.2827 81.0202 41.1778 80.9618 41.0813C80.8824 40.9715 80.7762 40.8847 80.653 40.8289C80.5299 40.7731 80.3945 40.7504 80.2601 40.7633C79.9808 40.764 79.7065 40.8361 79.4625 40.9726C79.1852 41.1246 78.9452 41.3369 78.7603 41.5943C78.6496 41.7191 78.5534 41.8561 78.4732 42.0025C78.4732 42.0406 78.4415 42.082 78.4415 42.1201L78.4423 42.1178ZM53.1964 41.3613C52.8798 41.4607 52.2713 41.9292 52.2713 42.1885C52.3354 42.2982 53.1015 41.9865 53.3888 41.6914C53.612 41.4799 53.452 41.2874 53.1964 41.3613ZM51.5347 42.1178C51.5347 42.0757 51.5664 42.0383 51.5664 42.0001C51.6622 41.8554 51.7245 41.7177 51.8218 41.592C52.0184 41.3335 52.269 41.1214 52.5557 40.9703C52.7999 40.8338 53.0745 40.7617 53.354 40.761C53.4881 40.7513 53.6225 40.7753 53.7451 40.8309C53.8676 40.8864 53.9746 40.9716 54.0562 41.079C54.1185 41.1706 54.1516 41.2791 54.1516 41.3901C54.2474 41.9897 53.577 42.3619 53.1624 42.5512C52.8554 42.6906 52.5347 42.7971 52.2056 42.8692C52.0892 42.8894 51.985 42.9532 51.9138 43.0479C51.8427 43.1426 51.81 43.2611 51.8226 43.3791C51.849 43.4906 51.9175 43.5874 52.0135 43.6494C52.5733 43.8725 53.1912 43.9006 53.7687 43.729C54.4332 43.5515 55.0322 43.1837 55.4925 42.6704C55.5558 42.6219 55.6205 42.5458 55.7155 42.5776C55.7796 42.6062 55.8113 42.7157 55.8113 42.7888C55.8113 43.5499 54.9171 44.2843 54.4391 44.5158C53.9396 44.7449 53.3916 44.8467 52.8436 44.8128C52.3479 44.8001 51.8776 44.5906 51.5355 44.2299C51.359 44.0282 51.2377 43.7836 51.1839 43.5205C51.1826 43.0299 51.3036 42.5472 51.5355 42.1155L51.5347 42.1178ZM47.5128 41.3613C47.1614 41.4607 46.5553 41.9292 46.5877 42.1885C46.6202 42.2982 47.4168 41.9865 47.6724 41.6914C47.8956 41.4799 47.7684 41.2874 47.5144 41.3613H47.5128ZM45.8214 42.1178C45.8531 42.0757 45.8531 42.0383 45.8848 42.0001C45.954 41.8547 46.0396 41.7176 46.1402 41.592C46.3252 41.3348 46.5652 41.1225 46.8424 40.9703C47.0879 40.8377 47.3612 40.7658 47.6399 40.761C47.7744 40.7481 47.9098 40.7704 48.0329 40.8262C48.1561 40.882 48.2627 40.9692 48.3421 41.079C48.4005 41.1753 48.4436 41.2803 48.4696 41.3901C48.5337 41.9897 47.895 42.3619 47.4479 42.5512C47.15 42.6859 46.8403 42.7923 46.5228 42.8692C46.4639 42.8764 46.4069 42.8954 46.3555 42.9251C46.3041 42.9549 46.2591 42.9948 46.2233 43.0424C46.1876 43.09 46.162 43.1442 46.1476 43.202C46.1332 43.2599 46.1302 43.3202 46.1395 43.3791C46.1403 43.4341 46.1554 43.4878 46.1831 43.5352C46.2109 43.5826 46.2505 43.6219 46.2979 43.6494C46.8577 43.8725 47.4756 43.9006 48.053 43.729C48.7235 43.5442 49.3309 43.178 49.8086 42.6704C49.8402 42.6219 49.9361 42.5458 50.0002 42.5776C50.0643 42.6094 50.0957 42.7157 50.1274 42.7888C50.0443 43.1671 49.8743 43.5203 49.6304 43.8203C49.3866 44.1202 49.0757 44.3586 48.7235 44.5158C48.2237 44.745 47.6755 44.8468 47.1272 44.8128C46.6329 44.7939 46.1649 44.5853 45.8191 44.2299C45.6404 44.0339 45.5294 43.785 45.5026 43.5205C45.4773 43.0317 45.5868 42.5457 45.8191 42.1155L45.8214 42.1178ZM73.9374 38.3887C74.085 40.1474 74.4733 41.8772 75.0912 43.5294C75.1553 43.1866 75.2497 42.809 75.347 42.3947L75.4746 41.9644C75.6077 41.4865 75.7675 41.0165 75.9533 40.5567C76.1116 40.0843 76.304 39.6451 76.4638 39.2379C76.6553 38.8307 76.8469 38.4785 77.0067 38.1731C77.1169 37.931 77.2787 37.7164 77.4813 37.5448C77.5129 37.5162 77.5772 37.5322 77.7046 37.5902C77.8406 37.6535 77.969 37.7319 78.0876 37.824C78.2033 37.9193 78.3093 38.0257 78.4041 38.1421C78.4998 38.255 78.5315 38.3474 78.4682 38.4182C78.2269 38.8085 78.014 39.2154 77.8306 39.6364C77.6391 40.0857 77.4475 40.531 77.2877 40.9835C77.1261 41.4085 76.9874 41.8423 76.8727 42.2825C76.7528 42.6401 76.6674 43.0082 76.6172 43.3822C76.5536 43.6248 76.5318 43.8767 76.5531 44.1266C76.5531 44.3072 76.6173 44.3796 76.7115 44.355C76.8698 44.3097 76.9344 44.336 76.9028 44.4346C76.8555 44.5604 76.7912 44.6788 76.7115 44.7868C76.5969 44.9285 76.4683 45.0584 76.3282 45.1748C76.2005 45.2967 76.1049 45.3574 76.0411 45.3569C75.932 45.3516 75.8248 45.3267 75.7246 45.2831C75.6151 45.2318 75.5094 45.1726 75.4081 45.1064C75.3017 45.0572 75.2043 44.99 75.1206 44.9076C75.0248 44.8408 74.9923 44.7957 74.9923 44.7662C74.1478 43.3297 73.6255 41.7253 73.4613 40.0651C73.4288 39.5879 73.2371 39.731 73.1096 40.0841C72.6422 41.1833 72.2376 42.3082 71.8974 43.4537C71.8331 43.7527 71.7691 44.0214 71.7058 44.2595C71.6417 44.498 71.6099 44.6991 71.5782 44.8621C71.5555 44.972 71.5446 45.0843 71.5458 45.1965C71.5321 45.2345 71.5053 45.266 71.47 45.2854C71.4348 45.3049 71.3938 45.3109 71.3545 45.3021C70.4927 45.2313 70.8438 43.2432 71.0028 42.6626L71.227 41.8576C71.2929 41.5286 71.3889 41.2065 71.5141 40.8953C71.6098 40.5772 71.7376 40.264 71.831 39.9626C71.9243 39.6611 72.0548 39.3852 72.1474 39.1179C72.2386 38.8868 72.3442 38.6617 72.4639 38.4442C72.4859 38.3983 72.497 38.3479 72.4964 38.297C72.4793 38.2807 72.4593 38.2678 72.4373 38.2593C72.4152 38.2509 72.3916 38.247 72.3681 38.2477C72.3258 38.2425 72.2835 38.2405 72.241 38.2415C72.1768 38.2415 72.1451 38.2286 72.1451 38.1999C72.1127 38.1737 72.1127 38.1254 72.1768 38.0586C72.2235 37.9776 72.2891 37.9093 72.3681 37.8597C72.4666 37.7876 72.5727 37.7265 72.6846 37.6776C72.8059 37.6265 72.9363 37.5994 73.0679 37.598C73.1793 37.6101 73.2869 37.645 73.3844 37.7005C73.4168 37.7172 73.799 38.1243 73.8315 38.1689C73.8639 38.2134 73.8957 38.2484 73.9273 38.285V38.3879L73.9374 38.3887ZM37.6188 42.9399C38.3383 42.4255 39.1696 42.0913 40.0436 41.9644C40.1057 41.6729 40.072 41.3688 39.9478 41.098C39.8782 41.0509 39.8031 41.0122 39.7244 40.9827C39.6412 40.9588 39.5555 40.9458 39.469 40.9439C39.3102 40.9521 39.1563 41.0021 39.0227 41.0887C38.8435 41.1883 38.6725 41.3019 38.5114 41.4289C38.331 41.557 38.1604 41.6986 38.001 41.8522C37.8493 41.987 37.6894 42.1119 37.5222 42.2265V42.237L37.4905 42.244V41.0344C37.4905 40.822 37.5221 40.6505 37.458 40.6235L36.4046 40.7513C36.1498 40.822 36.1175 41.1307 36.1175 41.4441V41.7256C36.1175 41.829 36.15 41.9317 36.15 42.0343C36.1859 42.1267 36.2071 42.2239 36.2137 42.3228C36.231 42.3987 36.2525 42.4738 36.2779 42.5473C36.2868 42.6089 36.3084 42.6677 36.3413 42.7205C36.3769 42.7801 36.3988 42.847 36.4054 42.9162C36.4379 42.9678 36.4597 43.0253 36.4695 43.0855C36.4892 43.1126 36.5003 43.1452 36.5012 43.1787C36.472 43.2434 36.4283 43.3005 36.3737 43.3457C36.278 43.4419 36.1506 43.5701 36.0232 43.7212C35.8958 43.8723 35.736 44.0449 35.5761 44.235C35.4163 44.4251 35.2595 44.6159 35.1012 44.8148C34.9738 45.0136 34.8457 45.2123 34.7507 45.3984C34.5924 45.7571 34.5589 45.8702 34.8786 46.1231L35.5491 46.4244C35.7406 46.3759 35.8049 46.0369 35.8049 45.8675C36.0248 45.1126 36.37 44.4004 36.8258 43.7608C36.8899 43.8539 36.9538 43.9462 37.0171 44.04C37.1453 44.1721 37.241 44.2872 37.3684 44.3961C37.4883 44.4965 37.6167 44.5867 37.7517 44.6653C37.8591 44.7283 37.9785 44.7679 38.1022 44.7814C38.1346 44.7885 38.1664 44.7979 38.1988 44.8066C38.2299 44.8157 38.2622 44.8203 38.2946 44.8202H38.4218C38.4753 44.8169 38.5285 44.8079 38.5802 44.7938C38.8968 44.7079 39.0906 44.2141 38.9632 44.0599C38.9632 44.028 38.899 44.021 38.8673 44.021C38.8673 44.021 38.8348 44.021 38.8032 44.021C38.7715 44.021 38.7394 44.0313 38.7077 44.04L38.676 44.0494C38.5478 44.0852 38.0057 44.1456 37.6226 43.1197V43.1007V43.0945C37.6226 43.0404 37.591 42.9853 37.6226 42.9352L37.6188 42.9399ZM111.341 45.6497C110.775 45.833 110.23 46.075 109.713 46.3712C109.522 46.477 109.362 46.5953 109.17 46.7265C109.019 46.8524 108.889 47.0033 108.788 47.1727C108.564 47.5704 108.532 48.1191 109.104 48.1191C109.293 48.1205 109.479 48.0751 109.646 47.9871C109.825 47.8964 109.986 47.7737 110.121 47.6251C110.26 47.4578 110.387 47.2819 110.504 47.0985C110.759 46.6214 111.046 46.1237 111.334 45.6497H111.341ZM114.469 44.1934C114.432 44.2297 114.389 44.259 114.342 44.28C114.278 44.3286 114.184 44.3788 114.086 44.4393C113.636 44.721 113.166 44.9715 112.682 45.1891C111.98 46.4712 110.32 49.8965 108.408 48.8029C108.295 48.7482 108.196 48.6664 108.121 48.5645C108.04 48.4803 107.985 48.374 107.963 48.2589C107.926 48.1438 107.904 48.0244 107.9 47.9036C107.896 47.6212 107.962 47.3424 108.091 47.0916C108.207 46.8384 108.368 46.6089 108.566 46.4147C108.765 46.2035 108.99 46.0193 109.236 45.8668C109.492 45.7045 109.758 45.5607 110.034 45.4365C110.53 45.2087 111.042 45.019 111.566 44.8687C111.599 44.8441 111.63 44.8187 111.63 44.7988C111.662 44.7416 111.693 44.6771 111.726 44.6031C111.758 44.5292 111.789 44.4679 111.821 44.4074C111.853 44.3239 111.917 44.2371 111.949 44.1472C111.982 44.0574 112.013 43.9654 112.045 43.8715L112.236 43.3457V43.3077C112.236 43.2941 112.205 43.2882 112.172 43.2882C112.094 43.309 112.019 43.3415 111.949 43.3845C111.821 43.4513 111.662 43.5316 111.503 43.6342C111.311 43.7329 111.12 43.8429 110.897 43.9527C110.673 44.0624 110.45 44.1736 110.258 44.2762C110.073 44.3729 109.881 44.4557 109.683 44.5235C109.572 44.5747 109.454 44.6082 109.332 44.6229C109.28 44.6267 109.227 44.6194 109.177 44.6016C109.128 44.5838 109.083 44.556 109.045 44.5196C108.959 44.4613 108.892 44.3779 108.853 44.2808C108.821 44.1909 108.789 44.0986 108.757 44.0008V43.7737C108.757 43.61 108.802 43.4495 108.886 43.3092C108.97 43.1294 109.076 42.9608 109.202 42.8079C109.34 42.6336 109.49 42.4689 109.649 42.3143C109.811 42.161 109.981 42.0175 110.16 41.8848C110.309 41.766 110.468 41.6597 110.635 41.5668C110.741 41.489 110.859 41.4311 110.986 41.3963C111.018 41.3867 111.082 41.3783 111.113 41.3679C111.178 41.352 111.241 41.3391 111.305 41.3264C111.347 41.3133 111.389 41.3034 111.433 41.2969L111.528 41.2876C111.617 41.2854 111.706 41.3019 111.789 41.3361C111.871 41.3703 111.945 41.4216 112.007 41.4864C112.138 41.6067 112.218 41.7734 112.23 41.9516C112.216 42.0199 112.194 42.0866 112.166 42.1504C112.151 42.1963 112.126 42.2382 112.093 42.2731C112.06 42.3081 112.019 42.3351 111.974 42.3524C111.871 42.395 111.766 42.4302 111.658 42.458C111.516 42.4861 111.377 42.5292 111.243 42.5861C111.144 42.6367 111.048 42.6935 110.956 42.7562C110.86 42.831 110.764 42.9156 110.639 43.0094C110.543 43.1027 110.448 43.2024 110.352 43.3084C110.288 43.4025 110.235 43.5035 110.194 43.6098V43.628H110.225L112.779 42.7015C112.844 42.6976 112.909 42.704 112.971 42.7205C113.049 42.7419 113.124 42.7731 113.195 42.8129C113.264 42.8592 113.328 42.9123 113.386 42.9717C113.402 43.0025 113.41 43.0366 113.41 43.0712C113.41 43.1058 113.402 43.1398 113.386 43.1706L113.099 44.2641C113.441 44.0998 113.772 43.9128 114.089 43.7038C114.252 43.5726 114.401 43.4251 114.535 43.2638C114.682 43.134 114.81 42.9849 114.918 42.8207C114.957 42.6716 115.01 42.5266 115.076 42.3873C115.204 42.1026 115.299 41.8393 115.393 41.592C115.486 41.3447 115.584 41.1372 115.648 40.9559C115.744 40.7794 115.776 40.6608 115.807 40.6091C115.934 40.3363 116.061 40.0524 116.221 39.7653C116.349 39.4763 116.507 39.1493 116.696 38.784C116.76 38.6392 116.854 38.4698 116.952 38.2702C117.049 38.0706 117.143 37.8915 117.207 37.7308C117.257 37.6641 117.3 37.5921 117.335 37.5161C117.399 37.423 117.462 37.3341 117.526 37.2466C117.596 37.1651 117.67 37.0881 117.75 37.0159C117.822 36.9563 117.911 36.9224 118.005 36.9196H118.068C118.124 36.9264 118.178 36.9447 118.227 36.9736C118.275 37.0175 118.328 37.0561 118.385 37.0889C118.448 37.1342 118.481 37.1725 118.543 37.2178C118.576 37.26 118.607 37.2887 118.607 37.2974C118.607 37.3301 118.64 37.3682 118.64 37.4136C118.664 37.4478 118.676 37.4894 118.672 37.5312C118.655 37.6861 118.611 37.8369 118.544 37.9774C118.448 38.1516 118.352 38.3179 118.257 38.4881C118.128 38.6583 118.002 38.8211 117.874 38.9785C117.77 39.105 117.674 39.2378 117.586 39.3762C117.428 39.5846 117.27 39.8161 117.075 40.069C116.917 40.3224 116.759 40.5725 116.6 40.8196C116.438 41.0571 116.289 41.3034 116.153 41.5571C115.995 41.8585 115.866 42.1668 115.739 42.477V42.5065C115.85 42.4141 115.967 42.3295 116.09 42.2529C116.217 42.1734 116.345 42.0938 116.473 42.0254C116.606 41.9574 116.744 41.9015 116.887 41.8584C117.011 41.8168 117.14 41.7953 117.271 41.7947H117.335C117.476 41.7992 117.61 41.8513 117.718 41.9427C117.813 42.0547 117.898 42.1748 117.972 42.3015C118.036 42.4462 118.1 42.603 118.164 42.7787C118.197 42.9513 118.228 43.1118 118.26 43.2653C118.293 43.3914 118.314 43.5202 118.324 43.6502V43.8354C118.357 43.8481 118.357 43.8546 118.357 43.8482C118.357 43.8418 118.356 43.8482 118.389 43.8482C118.492 43.8458 118.593 43.8111 118.676 43.7488C118.788 43.6811 118.894 43.6037 118.993 43.5174C119.088 43.4243 119.184 43.332 119.28 43.2358C119.376 43.1396 119.438 43.0553 119.503 42.9884C119.503 42.963 119.567 42.9496 119.631 42.9496C119.699 42.9465 119.766 42.9653 119.822 43.0036C119.886 43.0394 119.886 43.0999 119.886 43.1842C119.885 43.2512 119.862 43.3161 119.822 43.3694C119.797 43.4504 119.765 43.5292 119.726 43.6043C119.693 43.6864 119.638 43.758 119.568 43.8125C119.504 43.892 119.44 43.963 119.376 44.0369C119.281 44.1165 119.185 44.1846 119.121 44.249C119.025 44.3126 118.962 44.3646 118.898 44.4027C118.802 44.4568 118.705 44.5117 118.581 44.5697C118.271 44.7429 117.938 44.8712 117.592 44.9507C117.528 44.9642 117.464 44.9729 117.401 44.9856C117.337 44.9984 117.305 44.9992 117.305 44.9992C117.26 44.9982 117.215 44.9844 117.177 44.96C117.138 44.9251 117.095 44.8944 117.05 44.868C117.017 44.8322 116.986 44.794 116.954 44.7519C116.93 44.7197 116.918 44.6797 116.921 44.6396V43.4754C116.948 43.3479 116.959 43.2173 116.954 43.0871C116.921 42.9559 116.922 42.8305 116.89 42.712C116.826 42.4201 116.507 42.494 116.475 42.4964C116.417 42.5379 116.365 42.5851 116.317 42.6378C116.185 42.7606 116.067 42.8984 115.966 43.0482C115.849 43.1898 115.743 43.3399 115.649 43.4975C115.553 43.6447 115.458 43.7632 115.393 43.8467C115.286 43.9819 115.199 44.1332 115.138 44.2952C115.042 44.4717 114.946 44.6388 114.883 44.7922C114.851 44.8082 114.851 44.818 114.851 44.8307C114.822 44.8481 114.788 44.8558 114.755 44.8528C114.719 44.8441 114.686 44.8266 114.659 44.802C114.596 44.7747 114.542 44.7315 114.501 44.6769C114.501 44.6451 114.468 44.5975 114.468 44.5394C114.468 44.4814 114.437 44.4362 114.437 44.4012C114.437 44.3439 114.468 44.2732 114.468 44.1857L114.469 44.1934ZM35.2894 38.2535C35.2881 38.3554 35.2548 38.4543 35.194 38.5358C35.0982 38.6249 35.0022 38.7092 34.9065 38.7832C34.8074 38.8554 34.7014 38.9175 34.59 38.9684C34.5088 39.0075 34.4227 39.0355 34.3342 39.0519C34.3007 39.0527 34.2682 39.0612 34.2387 39.0772C34.1746 39.0931 34.1428 39.109 34.0803 39.1249C34.0178 39.1408 33.9519 39.1576 33.8886 39.1711C33.8253 39.1847 33.7614 39.1927 33.7306 39.1999C33.6451 39.2019 33.5597 39.2102 33.4755 39.2251C33.4114 39.2347 33.3476 39.2413 33.2842 39.2469C33.2319 39.256 33.1789 39.2616 33.1258 39.2636C33.0625 39.2636 32.9677 39.2696 32.8387 39.2768C32.7097 39.2839 32.5839 39.2895 32.3924 39.2927C32.2009 39.2959 32.2001 39.2927 31.9136 39.2927L30.7327 41.032H32.4878C32.4878 41.032 32.5203 41.0322 32.5837 41.0258C32.6153 41.0258 32.6796 41.0257 32.7421 41.0153C32.7745 41.0153 32.8376 41.0092 32.9001 41.006C32.9215 41.0049 32.9429 41.0049 32.9643 41.006C32.9959 41.006 33.0285 40.9995 33.0601 40.9963C33.1234 40.9899 33.156 40.9836 33.2185 40.9804L33.3465 40.9668C33.3789 40.9604 33.4423 40.9536 33.4423 40.9536C33.4965 40.958 33.5499 40.97 33.6007 40.9893C33.6293 40.9969 33.6543 41.014 33.6718 41.0379C33.6894 41.0617 33.6985 41.0909 33.6973 41.1206C33.7019 41.1843 33.6907 41.2482 33.6649 41.3066C33.6324 41.3702 33.569 41.4315 33.5366 41.4864C33.4733 41.5436 33.409 41.5951 33.3449 41.6452C33.3037 41.6969 33.2491 41.7361 33.1869 41.7582C33.0433 41.8329 32.8938 41.895 32.7398 41.9442C32.5482 42.0015 32.3575 42.0532 32.1652 42.0937C31.9728 42.1343 31.7821 42.1685 31.5905 42.1939C31.3674 42.2154 31.2075 42.2258 31.0801 42.2258C30.6329 42.2258 30.4413 42.315 29.9625 42.2832C29.869 42.4605 29.7944 42.6468 29.7396 42.8397C29.6715 43.0293 29.6495 43.2325 29.6754 43.4323C29.7182 43.4709 29.7683 43.5004 29.8226 43.5193C29.877 43.5381 29.9345 43.546 29.9919 43.5422C30.4854 43.5535 30.9784 43.5037 31.4599 43.3943C31.9342 43.2957 32.4029 43.1713 32.8638 43.0218C32.9279 42.9996 33.0223 42.9639 33.1513 42.9193C33.2608 42.8829 33.3667 42.8368 33.4678 42.7811C33.645 42.7069 33.8157 42.618 33.9783 42.5155C34.1348 42.4271 34.3101 42.3773 34.4895 42.3706C34.5232 42.366 34.5575 42.3681 34.5904 42.3768C34.6232 42.3856 34.6538 42.4008 34.6808 42.4215C34.722 42.4697 34.7446 42.5315 34.7442 42.5951C34.7279 42.8288 34.6389 43.0513 34.4895 43.2312C34.3224 43.4574 34.1293 43.6629 33.9141 43.8436C33.7056 44.0268 33.4811 44.1911 33.2437 44.3344C33.0766 44.4427 32.8933 44.5231 32.7007 44.5728C32.6465 44.586 32.5937 44.604 32.5427 44.6268C32.502 44.6487 32.4592 44.6671 32.4152 44.6812C32.3194 44.7066 32.1913 44.7326 32.0987 44.7604C31.9713 44.7859 31.844 44.8115 31.7482 44.8346C31.6524 44.8576 31.524 44.8758 31.4607 44.8886C31.4178 44.8918 31.3751 44.8981 31.3332 44.9076C31.3007 44.9076 31.2694 44.9077 31.206 44.9173C31.1427 44.9268 31.0785 44.9277 31.0144 44.9309C30.9503 44.9341 30.8868 44.9412 30.8227 44.9468C30.791 44.9521 30.7594 44.9553 30.7273 44.9569H30.2809C29.8969 44.9829 29.515 44.8805 29.1951 44.6653C29.0558 44.5361 28.9486 44.3756 28.8821 44.1973C28.8156 44.019 28.7913 43.8278 28.8118 43.6385C28.8126 43.6041 28.824 43.5707 28.8442 43.543V43.357C28.8442 43.287 28.8767 43.2119 28.8767 43.1395C28.9008 43.0784 28.9116 43.013 28.9084 42.9473C28.9455 42.87 28.9775 42.79 29.0042 42.7085C29.0358 42.6122 29.0684 42.5232 29.1 42.4397C29.1334 42.3687 29.1551 42.2929 29.1642 42.2149C29.184 42.1797 29.1949 42.14 29.1959 42.0996V42.0285C29.1642 42.015 29.1642 41.9969 29.1317 41.9714C29.0914 41.8723 29.0697 41.7666 29.0676 41.6596C29.0351 41.5347 29.0034 41.4576 29.0034 41.4258C29.0064 41.3002 29.0514 41.1791 29.1309 41.0821C29.216 40.9999 29.3293 40.954 29.4474 40.9536C29.4791 40.9536 29.5116 40.9534 29.5433 40.9606C29.5863 40.9658 29.6292 40.9731 29.6715 40.9827L30.7246 39.0422C30.6279 38.9502 30.5519 38.8388 30.5008 38.7152C30.4692 38.6116 30.448 38.5051 30.4374 38.3972C30.432 38.3409 30.4442 38.2845 30.4726 38.2357C30.501 38.1868 30.5444 38.1482 30.5959 38.1254C30.7195 38.0788 30.8479 38.0464 30.9788 38.0291L34.8725 38.01C34.9152 38.0111 34.9579 38.0154 35 38.0228C35.0442 38.0334 35.0872 38.0483 35.1283 38.0679C35.1739 38.0894 35.2166 38.1161 35.2562 38.1475C35.2689 38.1625 35.2785 38.1802 35.284 38.1992C35.2895 38.2181 35.2906 38.2379 35.2879 38.2574L35.2894 38.2535ZM44.4809 43.1414C44.4805 43.2046 44.4695 43.2672 44.4485 43.3267C44.4208 43.4128 44.3888 43.4974 44.3526 43.5803C44.272 43.8092 44.1282 44.0103 43.938 44.16C43.7438 44.3253 43.5291 44.4646 43.2992 44.5744C43.0748 44.6827 42.8397 44.7663 42.5975 44.8241C42.3986 44.8711 42.1954 44.8978 41.9912 44.9037H41.7995C41.7454 44.8995 41.6923 44.8878 41.6415 44.8687C41.5774 44.8465 41.483 44.8202 41.4181 44.7891C41.3532 44.7581 41.2597 44.7289 41.194 44.6994C41.1495 44.6791 41.107 44.6552 41.0661 44.6284C40.9955 44.5741 40.9311 44.512 40.8744 44.4431C40.8103 44.3636 40.7785 44.2793 40.716 44.1934C40.6843 44.1068 40.653 44.016 40.6213 43.9302C40.5873 43.8546 40.5656 43.7742 40.5572 43.6917C40.5648 43.4401 40.6182 43.1922 40.7152 42.9601C40.8378 42.7138 40.977 42.476 41.131 42.2483C41.3225 42.0208 41.5137 41.8082 41.7052 41.6118C41.9167 41.4227 42.1408 41.2483 42.3757 41.0895C42.5853 40.9481 42.8103 40.831 43.0461 40.7404C43.2164 40.6606 43.4012 40.617 43.5891 40.6122C43.6752 40.6147 43.7606 40.6274 43.8437 40.6503C43.9229 40.6799 43.9981 40.7197 44.0671 40.7687C44.1354 40.8195 44.1896 40.8869 44.2251 40.9645C44.2643 41.0502 44.2859 41.1432 44.2885 41.2375C44.2862 41.3412 44.2527 41.4416 44.1926 41.526C44.1431 41.6203 44.0786 41.7057 44.0014 41.7788C43.9234 41.8485 43.8375 41.9089 43.7456 41.9586C43.6674 42.0018 43.5801 42.025 43.4909 42.0262C43.4364 42.0218 43.3828 42.0088 43.3325 41.9873C43.2824 41.9556 43.2297 41.9289 43.1744 41.9077C43.1278 41.8864 43.0845 41.8582 43.0461 41.8242C42.982 41.7996 42.982 41.7862 42.982 41.7862C42.7856 41.8026 42.5976 41.8735 42.439 41.9912C42.224 42.1405 42.0209 42.3067 41.832 42.4883C41.6529 42.6706 41.4936 42.8715 41.3571 43.0879C41.2286 43.2299 41.1504 43.4104 41.1341 43.6016C41.1567 43.6303 41.1861 43.6531 41.2195 43.6676C41.2529 43.6822 41.2891 43.6881 41.3254 43.6851C41.3895 43.6851 41.4838 43.6851 41.5487 43.6851H41.8358C41.9216 43.6798 42.0072 43.6691 42.0917 43.6533C42.2191 43.6302 42.3464 43.6049 42.4746 43.5795C42.6579 43.5431 42.8391 43.497 43.0175 43.4412C43.2407 43.384 43.4323 43.3249 43.6238 43.2677C43.6555 43.2549 43.7194 43.2326 43.7819 43.2032C43.8444 43.1738 43.9403 43.146 44.0052 43.1174C44.0701 43.0887 44.1336 43.0592 44.1637 43.0378C44.2041 43.0194 44.2468 43.0074 44.2908 43.002H44.4492C44.4817 43.0211 44.4817 43.0699 44.4817 43.1407L44.4809 43.1414Z" fill="#F26309"/>
<path fill-rule="evenodd" clip-rule="evenodd" d="M115.084 31.3954H100.181C99.7397 31.3903 99.3171 31.2161 98.9999 30.908L95.745 27.6472C95.5723 27.4868 95.4347 27.2917 95.3412 27.0748C95.2477 26.8579 95.2004 26.6239 95.2021 26.3875V6.4148H101.425V25.4943C101.423 25.6661 101.49 25.8315 101.609 25.9541C101.729 26.0767 101.893 26.1462 102.063 26.1479H115.084V31.3954ZM71.362 6.4148C70.9108 6.41362 70.4763 6.58705 70.1486 6.89866L66.8937 10.177C66.5589 10.505 66.3642 10.951 66.3508 11.4208V26.3883C66.3786 26.8867 66.5959 27.3554 66.9579 27.6973L70.1486 30.9073C70.475 31.2213 70.91 31.3959 71.362 31.3946H86.2339C86.4534 31.3982 86.6712 31.3569 86.8742 31.2731C87.0773 31.1893 87.2613 31.0649 87.4148 30.9073L90.638 27.6752C90.8221 27.5165 90.9692 27.3189 91.0685 27.0966C91.1678 26.8743 91.2169 26.6327 91.2126 26.389V16.5472H76.947V21.7904H85.019V25.4951C85.0188 25.5826 85.0012 25.6693 84.9672 25.7498C84.9332 25.8304 84.8836 25.9033 84.8212 25.9642C84.7587 26.0251 84.6847 26.0726 84.6036 26.1044C84.5225 26.1361 84.436 26.1515 84.349 26.149H73.2439C73.1568 26.1515 73.0703 26.1361 72.9892 26.1044C72.9081 26.0726 72.8341 26.0251 72.7716 25.9642C72.7092 25.9033 72.6596 25.8304 72.6256 25.7498C72.5916 25.6693 72.574 25.5826 72.5738 25.4951V12.3128C72.5742 12.2254 72.5919 12.1393 72.626 12.0588C72.66 11.9784 72.7096 11.9053 72.772 11.8445C72.8345 11.7836 72.9086 11.7357 72.9896 11.7039C73.0706 11.6721 73.1569 11.657 73.2439 11.6592H84.3505C84.4374 11.6571 84.5238 11.6724 84.6048 11.7043C84.6857 11.7361 84.7595 11.784 84.8219 11.8448C84.8843 11.9057 84.9343 11.9784 84.9684 12.0588C85.0025 12.1392 85.0201 12.2254 85.0206 12.3128V14.4331H91.2119V11.4223C91.2139 11.1847 91.1666 10.9494 91.0731 10.7311C90.9797 10.5128 90.842 10.3163 90.6689 10.1544L87.4141 6.89944C87.2599 6.74299 87.0756 6.61945 86.8727 6.53635C86.6698 6.45325 86.4523 6.41239 86.2332 6.41597L71.362 6.4148ZM39.0325 6.4148H45.2844L56.1669 21.0906V6.4148H62.3907V31.3954H56.1387L45.2562 16.7157V31.3954H39.0325V6.4148ZM28.8235 6.4148H35.0469V31.3954H28.8235V6.4148ZM6.22841 26.149H18.0043C18.1753 26.1474 18.3386 26.0775 18.4584 25.9549C18.5781 25.8323 18.6446 25.6669 18.6431 25.4951V12.3128C18.6439 12.1412 18.5772 11.9762 18.4576 11.8538C18.338 11.7313 18.1751 11.6615 18.0043 11.6592H6.22841V26.149ZM0.00463711 6.41597H19.8553C20.3062 6.4149 20.7405 6.58795 21.0679 6.89944L24.2911 10.1544C24.4686 10.3144 24.6111 10.5096 24.71 10.7276C24.8088 10.9456 24.862 11.182 24.8657 11.4216V26.389C24.8653 26.6365 24.8109 26.8811 24.7061 27.1051C24.6014 27.3291 24.4488 27.527 24.2594 27.6853L21.0679 30.9088C20.7417 31.2227 20.307 31.3972 19.8553 31.3962H0V6.41597H0.00463711ZM118.823 6.41597H125.046V31.3962H118.823V6.41597Z" fill="#1A1A1A"/>
</g>
</g>
<rect x="143" y="5" width="1" height="39" fill="#3E3A39" fill-opacity="0.4"/>
<defs>
<clipPath id="clip0_158_3889">
<rect width="125.041" height="49.0959" fill="white"/>
</clipPath>
</defs>
</svg>
